<svg width="600" height="110" viewBox="0 0 600 110" fill="none" xmlns="http://www.w3.org/2000/svg">
  <defs>
    <radialGradient id="ng" cx="50%" cy="50%" r="70%">
      <stop offset="0%" stop-color="#B8F2FF" />
      <stop offset="55%" stop-color="#78D9FF" />
      <stop offset="100%" stop-color="#59C8FF" />
    </radialGradient>
    <filter id="glow" x="-50%" y="-50%" width="200%" height="200%">
      <feGaussianBlur stdDeviation="3" result="blur" />
      <feMerge>
        <feMergeNode in="blur" />
        <feMergeNode in="SourceGraphic" />
      </feMerge>
    </filter>
  </defs>

  <!-- Network graph icon, scaled to fit 90x90 centered in 110px height -->
  <g transform="translate(10, 10) scale(0.176)">
    <g filter="url(#glow)" stroke="url(#ng)" stroke-width="18" stroke-linecap="round" opacity="0.7">
      <line x1="256" y1="256" x2="256" y2="145" />
      <line x1="256" y1="256" x2="356" y2="200" />
      <line x1="256" y1="256" x2="356" y2="312" />
      <line x1="256" y1="256" x2="256" y2="367" />
      <line x1="256" y1="256" x2="156" y2="312" />
      <line x1="256" y1="256" x2="156" y2="200" />
    </g>
    <g filter="url(#glow)" stroke="url(#ng)" stroke-width="18" stroke-linecap="round" opacity="0.7">
      <line x1="256" y1="145" x2="356" y2="200" />
      <line x1="356" y1="200" x2="356" y2="312" />
      <line x1="356" y1="312" x2="256" y2="367" />
      <line x1="256" y1="367" x2="156" y2="312" />
      <line x1="156" y1="312" x2="156" y2="200" />
      <line x1="156" y1="200" x2="256" y2="145" />
    </g>
    <circle cx="256" cy="256" r="42" fill="url(#ng)" filter="url(#glow)" />
    <circle cx="256" cy="125" r="28" fill="url(#ng)" filter="url(#glow)" />
    <circle cx="380" cy="190" r="28" fill="url(#ng)" filter="url(#glow)" />
    <circle cx="380" cy="322" r="28" fill="url(#ng)" filter="url(#glow)" />
    <circle cx="256" cy="387" r="28" fill="url(#ng)" filter="url(#glow)" />
    <circle cx="132" cy="322" r="28" fill="url(#ng)" filter="url(#glow)" />
    <circle cx="132" cy="190" r="28" fill="url(#ng)" filter="url(#glow)" />
  </g>

  <!-- Title -->
  <text x="108" y="58" font-family="-apple-system, BlinkMacSystemFont, 'Segoe UI', sans-serif" font-size="42" font-weight="700" fill="#ffffff" letter-spacing="-1">scrape-lm</text>

  <!-- Subtitle -->
  <text x="110" y="84" font-family="-apple-system, BlinkMacSystemFont, 'Segoe UI', sans-serif" font-size="16" font-weight="400" fill="#7dd3fc" letter-spacing="0.5">AI-Powered News Aggregator</text>
</svg>
